<svg xmlns="http://www.w3.org/2000/svg" width="100" height="100" viewBox="0 0 100 100">
  <defs>
    <linearGradient id="grad1" x1="0%" y1="0%" x2="100%" y2="100%">
      <stop offset="0%" style="stop-color:#1b4332;stop-opacity:1" />
      <stop offset="100%" style="stop-color:#2e7d32;stop-opacity:1" />
    </linearGradient>
    <linearGradient id="grad2" x1="0%" y1="0%" x2="100%" y2="100%">
      <stop offset="0%" style="stop-color:#ffffff;stop-opacity:1" />
      <stop offset="100%" style="stop-color:#ffc107;stop-opacity:1" />
    </linearGradient>
  </defs>
  
  <!-- Background Circle -->
  <circle cx="50" cy="50" r="45" fill="url(#grad1)" />
  
  <!-- Book Icon -->
  <path d="M65,30H35c-2.8,0-5,2.2-5,5v30c0,2.8,2.2,5,5,5h30c2.8,0,5-2.2,5-5V35C70,32.2,67.8,30,65,30z" fill="#ffffff" opacity="0.9" />
  
  <!-- Book Pages -->
  <path d="M65,30H50v40h15c2.8,0,5-2.2,5-5V35C70,32.2,67.8,30,65,30z" fill="#f5f5f5" />
  
  <!-- Book Spine -->
  <path d="M35,30h-5v40h5c2.8,0,5-2.2,5-5V35C40,32.2,37.8,30,35,30z" fill="url(#grad2)" />
  
  <!-- Bookmark -->
  <path d="M45,30v15l5-5l5,5V30H45z" fill="#ffc107" />
</svg> 